<svg width="204" height="55" viewBox="0 0 204 55" fill="none" xmlns="http://www.w3.org/2000/svg">
<path d="M0.0232097 14.0057H31.2794V19.5475H7.46624V31.0252H29.4708V36.567H7.46624V48.5549H32.4388V54.0967H0V14.0289L0.0232097 14.0057Z" fill="#231F20"/>
<path d="M37.1226 23.327H44.6352L52.4261 47.0245L60.7502 23.327H68.2628L57.0171 54.0735H47.8814L37.0994 23.327H37.1226Z" fill="#231F20"/>
<path d="M83.8679 22.7473C93.9311 22.7473 99.0554 29.6108 98.7772 40.7407H75.9611C76.4944 45.7956 78.5117 49.0186 83.8679 49.0186C87.4851 49.0186 89.7574 47.3259 90.8472 44.1956L98.3598 44.6594C96.6672 51.1751 91.7747 54.5604 83.8679 54.5604C73.8047 54.5604 68.3325 48.6708 68.3325 38.6538C68.3325 28.6369 73.8047 22.7473 83.8679 22.7473ZM83.8679 28.2659C79.5087 28.2659 76.935 30.7702 76.1234 35.1989H91.3805C90.6153 30.7238 88.2271 28.2659 83.8679 28.2659Z" fill="#231F20"/>
<path d="M117.86 27.8485C113.037 27.8485 110.417 31.744 110.417 38.6306V54.0502H103.02L102.904 23.3038H110.417V27.0369C111.924 24.4863 115.472 22.9096 118.973 22.7241C125.372 22.3763 132.491 25.0428 132.491 38.4451V54.0502H124.978V38.4451C124.978 31.5121 122.659 27.8485 117.883 27.8485H117.86Z" fill="#231F20"/>
<path d="M149.997 3.26984H142.763V54.0502H149.997V3.26984Z" fill="#231F20"/>
<path d="M164.234 54.0038L156.374 54.1198L185.566 2.85248H193.079L164.234 54.0038Z" fill="#4400FF"/>
<path d="M191.479 54.0039C191.479 54.0039 146.89 5.21759 64.6455 0.000427925C64.6455 0.000427925 149.302 -0.695173 204 54.0039H191.479Z" fill="#4400FF"/>
</svg>
