<svg width="24" height="28" viewBox="0 0 24 28" fill="none" xmlns="http://www.w3.org/2000/svg">
<g clip-path="url(#clip0_275_531)">
<path d="M11.0751 27.5158C4.26422 17.6421 3 16.6287 3 13C3 8.02942 7.02942 4 12 4C16.9706 4 21 8.02942 21 13C21 16.6287 19.7358 17.6421 12.9249 27.5158C12.478 28.1614 11.522 28.1614 11.0751 27.5158ZM12 16.75C14.0711 16.75 15.75 15.0711 15.75 13C15.75 10.9289 14.0711 9.25 12 9.25C9.92892 9.25 8.25 10.9289 8.25 13C8.25 15.0711 9.92892 16.75 12 16.75Z" fill="#537FE7"/>
</g>
<defs>
<clipPath id="clip0_275_531">
<rect width="24" height="24" fill="white" transform="translate(0 4)"/>
</clipPath>
</defs>
</svg>
