<svg width="24" height="24" viewBox="0 0 24 24" fill="none" xmlns="http://www.w3.org/2000/svg">
<path d="M1.5 1.5V22.5H22.5V1.5H1.5ZM18.9469 6.47344L17.8219 7.55156C17.7234 7.62656 17.6766 7.74844 17.6953 7.86563V15.8016C17.6766 15.9234 17.7234 16.0453 17.8219 16.1156L18.9234 17.1938V17.4328H13.3922V17.2031L14.5312 16.0969C14.6437 15.9844 14.6437 15.9516 14.6437 15.7828V9.36563L11.475 17.4094H11.0484L7.35938 9.36563V14.7562C7.32656 14.9812 7.40625 15.2109 7.56562 15.375L9.04688 17.1703V17.4094H4.8375V17.1703L6.31875 15.375C6.47812 15.2109 6.54844 14.9813 6.51094 14.7562V8.52187C6.52969 8.34844 6.46406 8.17969 6.33281 8.0625L5.01562 6.47344V6.23438H9.10781L12.2672 13.1719L15.0469 6.23906H18.9469V6.47344Z" fill="#4B5563"/>
</svg>
