<svg width="24" height="28" viewBox="0 0 24 28" fill="none" xmlns="http://www.w3.org/2000/svg">
<g clip-path="url(#clip0_275_522)">
<path d="M23.1281 5.15314L18.2531 4.02814C17.7234 3.90627 17.1797 4.18283 16.9641 4.67971L14.7141 9.92971C14.5172 10.3891 14.6484 10.9281 15.0375 11.2422L17.8781 13.5672C16.1906 17.1625 13.2422 20.1531 9.57187 21.8735L7.24688 19.0328C6.92813 18.6438 6.39375 18.5125 5.93438 18.7094L0.684375 20.9594C0.182812 21.1797 -0.09375 21.7235 0.028125 22.2531L1.15313 27.1281C1.27031 27.6344 1.72031 28 2.25 28C14.2547 28 24 18.2735 24 6.25002C24 5.72502 23.6391 5.27033 23.1281 5.15314Z" fill="#537FE7"/>
</g>
<defs>
<clipPath id="clip0_275_522">
<rect width="24" height="24" fill="white" transform="translate(0 4)"/>
</clipPath>
</defs>
</svg>
